<svg xmlns="http://www.w3.org/2000/svg" width="1240" height="1240"><path d="M606 12.702c-78.888 1.54-162.523 20.515-234.964 53.308-88.24 39.946-166.643 101.198-227.188 177.49C75.382 329.772 32.055 432.151 17.523 542c-6.2 46.867-6.2 109.133 0 156 15.898 120.174 65.547 229.776 145.863 322 12.861 14.767 41.847 43.753 56.614 56.614 92.224 80.316 201.826 129.965 322 145.863 46.867 6.2 109.133 6.2 156 0 120.174-15.898 229.776-65.547 322-145.863 14.767-12.861 43.753-41.847 56.614-56.614 53.259-61.155 92.767-129.274 118.027-203.5 22.428-65.901 32.433-126.517 32.433-196.5s-10.005-130.599-32.433-196.5c-37.099-109.012-106.439-206.877-198.141-279.652C885.504 55.761 748.984 9.912 606 12.702M573.5 55.54c-134.239 11.435-258.082 69.055-353.494 164.466C131.82 308.193 76.269 419.699 58.942 543.305c-6.638 47.358-6.638 106.032 0 153.39 17.327 123.605 73.023 235.389 161.085 323.302 96.394 96.23 220.463 153.65 355.473 164.513 23.077 1.857 65.923 1.857 89 0 135.006-10.863 259.366-68.424 355.476-164.534 88.277-88.276 144.222-200.625 161.08-323.476 6.616-48.218 6.616-104.782 0-153-16.858-122.851-72.803-235.2-161.08-323.476-96.132-96.133-219.87-153.414-355.453-164.548-21.805-1.79-69.647-1.757-91.023.064m6 32.559c-65.913 5.435-125.122 20.55-184.5 47.098-22.82 10.203-50.939 25.534-50.994 27.803-.033 1.333-.144 1.333-1.006 0-.533-.825-.976-.986-.985-.358-.008.627-1.195 1.437-2.638 1.799-2.491.626-2.529.728-.75 2.031 1.593 1.167 1.992 1.16 2.673-.05.44-.782 1.663-1.422 2.718-1.422 1.412 0 1.743-.459 1.252-1.738-.366-.955.76-.168 2.503 1.75 1.742 1.919 3.182 2.926 3.198 2.238.016-.687-.421-1.25-.971-1.25-1.572 0-1.167-2.722.5-3.362.962-.369 1.528.041 1.579 1.143.048 1.044.277 1.228.583.469.278-.687 1.619-1.25 2.98-1.25 1.362 0 2.244.375 1.961.833-.283.459.143.834.947.834 1.259 0 1.269-.294.073-2.119-1.244-1.9-1.194-2.119.489-2.119 1.032 0 1.767.549 1.633 1.22-.135.671.205 1.137.755 1.035.55-.101 1.061-.634 1.135-1.184.074-.55.186-1.353.25-1.785.063-.432.946-.341 1.962.203 1.282.686 2.237.621 3.125-.215.997-.938 1.379-.928 1.736.047.252.688.898 1.25 1.434 1.25.537 0 .698-.449.359-.999-.356-.576.359-.893 1.691-.75 1.269.137 2.234-.201 2.143-.751-.096-.576 2.764-1.057 6.737-1.133 3.796-.074 6.656.264 6.356.75-.3.485.182.883 1.072.883.89 0 1.34-.45 1-1-.34-.55.11-1 1-1 .922 0 1.326-.473.938-1.1-.448-.725.085-.69 1.568.103 1.8.964 2.419.934 3.106-.15.655-1.034.861-.914.873.508.013 1.652.241 1.595 2.029-.5 1.108-1.299 1.955-1.911 1.882-1.361-.37 2.786.203 3.603 2.104 3 1.235-.392 2-.18 2 .555 0 .848.486.795 1.692-.183.964-.781 1.387-.864.984-.191-.39.649-.251 1.463.308 1.809.559.345 1.016.151 1.016-.431s.477-1.059 1.059-1.059.8.419.484.931c-.317.512-.107 1.22.465 1.574.573.354.918.048.767-.681-.151-.728.364-1.186 1.144-1.018 1.12.242 1.17.006.238-1.117-.925-1.115-.841-1.706.387-2.726 1.211-1.005 1.499-1.017 1.262-.052-.168.687.8 2.001 2.151 2.919 1.352.919 2.144 1.159 1.762.534-.407-.663.132-1.353 1.291-1.656 1.094-.286 2.283-.043 2.644.54.37.6.183.769-.43.39-.597-.369-1.351-.241-1.675.283-.343.555.531.751 2.091.468 1.585-.288 3.025.045 3.521.812.536.83 1.11.938 1.589.299.413-.55 2.032-1.027 3.6-1.06 2.59-.054 2.687.06 1.059 1.25-1.659 1.213-1.664 1.31-.069 1.31.948 0 1.982-.675 2.298-1.5.771-2.008 2.175-1.915 2.001.133-.18 2.11 3.359 2.679 5.365.863 1.034-.935 2.028-1.087 3.019-.461 1.147.726.919.941-1.023.965-1.904.023-2.155.249-1.054.946.877.555 2.13.549 3.184-.016 2.3-1.23 3.87-1.178 3.87.129 0 .582-.45.781-1 .441s-1 .139-1 1.063c0 1.23.336 1.404 1.25.648 1.449-1.198 6.75-.434 6.75.973 0 .523.867.676 1.926.34 1.133-.36 2.265-.048 2.75.758 1.197 1.988 3.904 2.738 5.202 1.44 1.063-1.063 1.626.086 1.24 2.528-.124.79 2.028.604 2.882-.25.275-.275 1.463-1.036 2.641-1.69 1.723-.958 2.503-.895 4 .324 1.022.833 1.3 1.232.617.886s-2.033-.168-3 .395c-1.784 1.039-1.598 1.152 2.602 1.581 2.835.29 4.547 2.586 2.837 3.804-.838.597-.748.723.303.422.825-.236 1.375-1.283 1.223-2.326-.254-1.735-.165-1.755 1.041-.24 1.035 1.299 1.742 1.423 3.278.573 1.718-.95 1.799-.889.659.505-.872 1.067-.954 1.8-.25 2.236.577.356 1.063.059 1.081-.661.019-.807.594-.565 1.5.632 1.326 1.754 1.946 1.45 1.562-.765-.079-.454.275-.566.787-.249.512.316.694 1.481.405 2.589-.405 1.546-.152 1.87 1.088 1.394.888-.341 1.323-1.092.966-1.669-.37-.599-.171-.755.462-.363.611.377.857 1.347.547 2.154-.314.82.036 1.535.794 1.62.746.084 2.032.227 2.857.317.825.091 2.4-.276 3.5-.816 1.794-.879 1.857-.807.609.706-1.226 1.486-1.18 1.606.386 1.005 1.267-.487 1.642-.278 1.304.727-.261.775.24 1.954 1.113 2.621 1.354 1.033 1.219 1.149-.912.788-2.332-.395-2.376-.33-.653.969 2.134 1.61 4.765.988 4.022-.951-.278-.723-.07-1.585.463-1.914.552-.341.884.615.773 2.221-.169 2.44.114 2.76 2.1 2.381 2.105-.403 2.816.494 2.413 3.044-.065.412.584.75 1.441.75.924 0 1.268-.47.846-1.155-.446-.721-.274-.882.457-.43.644.398.943 1.091.665 1.541-.278.449.251 1.431 1.176 2.181 1.156.937 1.446.973.93.113-.413-.687-.274-1.25.308-1.25.582 0 1.059.717 1.059 1.594 0 .876.91 1.831 2.023 2.122 1.92.502 1.933.602.25 1.962-1.575 1.273-1.494 1.292.727.176 2.941-1.478 7.208-2.319 5.219-1.028-.929.602-1.015 1.497-.314 3.252.533 1.332.997 1.769 1.032.972.049-1.128.33-1.183 1.263-.25.66.66 1.897 1.186 2.75 1.168 1.231-.025 1.15-.334-.391-1.5-1.573-1.189-1.641-1.468-.357-1.468 2.1 0 3.17 2.92 1.329 3.626-.789.303-2.019.214-2.733-.198-.714-.412-.964-.38-.557.07.408.45.303 1.347-.234 1.993-.67.808-.525 1.176.465 1.176.792 0 1.165-.445.83-.988-.342-.553-.102-.674.543-.274.635.392 1.155 1.447 1.155 2.345 0 1.405.188 1.375 1.348-.212 1.706-2.332 3.967-1.107 3.086 1.671-.432 1.361-.279 1.813.459 1.357.647-.4 1.14.068 1.186 1.125.046 1.049.291 1.284.583.559.569-1.409 4.937-1.709 5.749-.394.291.47-.695.711-2.191.535-1.496-.175-1.909-.073-.917.228 1.371.417 1.539.866.702 1.876-.809.974-.782 1.525.101 2.07.763.472.942.321.489-.41-.392-.635-.245-1.155.327-1.155.572 0 1.322 1.125 1.667 2.5s1.056 2.5 1.578 2.5c.523 0 .673.45.333 1s-.141 1 .441 1 1.059-.505 1.059-1.122c0-.818.359-.825 1.324-.024.728.604 1.756.772 2.284.372.529-.399-.038.24-1.26 1.421-1.221 1.181-1.956 2.412-1.633 2.735.323.323 1.161-.194 1.861-1.148 1.169-1.591 1.358-1.515 2.288.919.557 1.459 1.603 2.987 2.324 3.397 1.055.597 1.067.479.062-.603-.687-.741-1.25-1.768-1.25-2.282s.9.209 2 1.608c1.1 1.398 2 3.259 2 4.135 0 1.697 1.955 1.751 3.326.092.501-.606.676-.443.446.413-.209.777-1.185 1.53-2.168 1.675-.983.144-2.084.592-2.446.996-.362.404.115.458 1.06.119.945-.339 1.988-.178 2.319.357.331.535 1.02.714 1.532.397.512-.316.931-.098.931.484s-.532 1.059-1.182 1.059c-.65 0 .588 1.592 2.75 3.538 2.513 2.262 3.21 3.317 1.932 2.925-1.724-.529-1.771-.465-.338.462.931.603 1.549 2.101 1.406 3.409-.151 1.373.276 2.333 1.037 2.333.9 0 1.176-1.171.91-3.852-.24-2.406-.007-3.619.619-3.232.551.341.761 1.249.466 2.018-.296.77-.115 1.399.4 1.399s.678.675.362 1.5c-.334.868-.005 1.527.781 1.563.746.035.316.481-.957.992-1.273.51-2.021 1.404-1.661 1.985.448.726 1.109.679 2.106-.149 1.141-.946 1.714-.925 2.661.098.963 1.04.904 1.139-.292.486-.922-.503-.729.085.5 1.525 1.1 1.289 1.469 2.034.819 1.656-.649-.379-1.443-.264-1.764.256-.321.519.433 1.267 1.677 1.662 2.141.679 4.667 3.133 4.736 4.6.018.371-9.037.724-20.12.785-11.084.061-20.534.347-21 .635-.467.288-.848 47.737-.848 105.442v104.918l-2.55 1.671c-1.403.919-2.326 2.256-2.051 2.972.319.832-.038 1.095-.991.729-.819-.314-1.418-.179-1.33.301.361 1.981-.165 3.192-1.63 3.755-1.021.392-1.338.172-.926-.643.345-.682-.082-.365-.948.702-.866 1.068-1.574 2.291-1.574 2.719 0 .427-.675.518-1.5.202-.935-.359-1.5.007-1.5.972 0 .851-.52 1.869-1.155 2.261-.763.473-.88.271-.345-.595.524-.848.418-1.067-.302-.622-.611.377-.857 1.347-.547 2.154.382.996-.095 1.468-1.485 1.468-1.126 0-2.369.52-2.761 1.155-.485.783-.263.882.69.308 1.186-.715 1.196-.59.065.806-.737.91-2.207 1.928-3.265 2.264-1.058.336-1.666 1.029-1.351 1.539.316.51.071.928-.544.928s-.859.419-.543.931c.317.512.049 1.256-.595 1.654-.731.452-.903.291-.457-.43.392-.635.236-1.155-.346-1.155s-1.059.702-1.059 1.559-.39 1.318-.866 1.024c-1.321-.817-4.44 3.114-3.577 4.508.443.718.335.96-.264.59-.559-.345-4.116 2.609-7.905 6.565-3.788 3.956-7.245 7.087-7.68 6.959-.436-.128-1.376 1.154-2.089 2.849-.712 1.695-1.481 2.947-1.707 2.782-.227-.165-1.525.48-2.885 1.432-1.359.953-2.129 1.732-1.71 1.732.419 0 .182.628-.528 1.395-.709.767-1.576 1.222-1.928 1.01-.351-.212-1.848 1.201-3.327 3.14l-2.689 3.525-81.172-.462c-78.973-.449-88.014-.6-87.155-1.459.892-.892-1.751-4.274-2.973-3.805-.716.275-1.806-.005-2.423-.622-.829-.829-1.122-.793-1.122.137 0 .692-.446.984-.99.647-.623-.385-.531-1.111.25-1.959.946-1.027 1.578-1.074 2.667-.197 1.192.961 1.252.833.362-.775-.585-1.059-1.792-2.032-2.681-2.162-.89-.131-1.383.142-1.096.606.286.463.063 1.125-.496 1.471-.559.345-1.016-.034-1.016-.842 0-.846-.743-1.346-1.75-1.177-.962.162-1.626.831-1.475 1.486.151.655-.226.882-.837.504-.801-.494-.808-.991-.025-1.774 1.753-1.753 1.246-3.061-.605-1.559-1.15.932-1.451.971-.941.122 1.112-1.85-.367-3.814-1.586-2.107-.759 1.063-.858 1.004-.453-.271.641-2.024-1.101-3.896-2.961-3.183-1.003.385-1.201.016-.712-1.328.502-1.379.096-1.214-1.565.639-1.233 1.375-1.982 1.978-1.663 1.34.941-1.884-.537-4.512-2.183-3.88-.824.316-2.11.066-2.858-.555-.748-.621-2.105-.843-3.015-.494-1.286.494-1.41.34-.554-.69.604-.729.822-2.385.484-3.679-.466-1.782-.297-2.157.696-1.544.855.529 1.071.421.619-.311-.393-.635-1.905-.879-3.488-.563-2.114.423-2.795.175-2.795-1.016 0-1.048.375-1.265 1.117-.649.693.574 1.674.533 2.584-.111 1.223-.865 1.186-.947-.219-.499-.927.296-1.867.001-2.088-.655-.303-.901-.79-.873-1.984.112-1.302 1.074-1.547 1.074-1.385 0 .109-.718.593-1.938 1.075-2.711.617-.99.515-1.181-.349-.647-.673.416-1.653 1.723-2.177 2.904-.881 1.985-.917 1.958-.472-.36.265-1.38.057-3.18-.461-4-.783-1.238-.946-1.165-.959.425-.014 1.83-1.379 1.414-1.64-.5-.069-.504-.181-1.341-.25-1.86-.069-.518-1.025-.769-2.125-.557-2.06.397-2.399-.462-2.169-5.5.084-1.844-.12-2.125-.778-1.07-.491.786-1.598 1.533-2.46 1.659-1.276.188-1.365-.146-.48-1.8.641-1.198.679-1.778.092-1.415-1.447.894-2.251-1.928-.927-3.252.617-.617.767-1.122.332-1.122-.434 0-1.687 1.012-2.783 2.25-1.493 1.685-1.857 1.813-1.447.512.308-.975.07-1.634-.541-1.5-.599.131-1.316-.387-1.594-1.151-.295-.813-.061-1.115.565-.729.629.389 1.01-.122.926-1.242-.139-1.833-1.932-2.278-3.374-.836-.382.383-1.183.689-1.779.681-.619-.009-.533-.364.201-.83 1.803-1.145.445-4.18-1.531-3.422-1.031.396-1.335.208-.873-.539.39-.631.032-2.395-.796-3.92-.827-1.526-1.522-2.407-1.544-1.958-.022.448.426 1.686.995 2.75 1.609 3.006.347 2.279-2.164-1.247-1.245-1.749-1.656-2.804-.913-2.345.934.577 1.118.458.595-.388-.415-.672-1.385-.981-2.154-.686-1.859.714-1.765.109.304-1.961 1.605-1.604 1.584-1.665-.358-1.048-1.304.413-2.535.085-3.345-.891-1.08-1.301-1.023-1.446.359-.916.943.362 1.641.134 1.641-.536 0-.641.52-.845 1.155-.453.744.46.881.273.387-.528-.422-.683-1.618-1.019-2.656-.747-1.039.271-1.66.124-1.381-.328.279-.452.167-1.011-.249-1.243-.416-.232-.223-.296.428-.142s1.118-.59 1.038-1.652c-.096-1.272-.483-1.594-1.134-.943-1.924 1.924-2.87.957-1.041-1.064 1.838-2.031 1.83-2.042-.767-1.054-2.091.795-2.895.653-3.953-.698-1.218-1.557-1.169-1.573.596-.196 1.785 1.392 1.883 1.341 1.358-.697-.392-1.521-.06-2.332 1.076-2.634 1.153-.307.997-.472-.524-.553-1.191-.064-2.355.221-2.586.634-.23.412-.288.202-.127-.468.161-.67-.156-1.495-.704-1.834-.549-.339-.723-1.481-.388-2.537.394-1.242.056-2.134-.959-2.523-.863-.331-1.569-1.454-1.569-2.495 0-1.041-.45-1.893-1-1.893s-1 .525-1 1.167c0 .641-.297.869-.661.506-.363-.363.174-1.583 1.194-2.71 1.502-1.659 1.55-1.932.251-1.434-2.115.812-3.604-3.395-1.641-4.639.998-.632.777-.863-.834-.875-1.205-.008-2.474-.472-2.819-1.031-.346-.559-1.016-.777-1.49-.484-.474.293-1.19-.037-1.591-.734-.401-.696-.361-.932.089-.525 1.047.949 3.502-1.058 3.502-2.863 0-.758-.702-1.378-1.559-1.378s-1.281-.45-.941-1c.556-.899-.757-1.433-2.75-1.118-1.127.178-.902-1.67.294-2.409.574-.355 2.262.091 3.75.991 1.628.984 1.013.111-1.544-2.191-2.338-2.105-4.25-4.404-4.25-5.109 0-.705.457-.999 1.016-.654.559.346.712 1.16.34 1.809-.372.65-.32.859.115.466.436-.393 1.633-.265 2.66.285 1.266.678 1.869.666 1.869-.035 0-.569-.702-1.035-1.559-1.035-.924 0-1.268-.47-.846-1.155.417-.674.277-.884-.336-.505-.577.357-1.318-.052-1.647-.909-.334-.871-1.11-1.241-1.759-.84-.699.432-.893.283-.486-.375.371-.601-.067-1.508-.974-2.016-1.125-.63-1.291-1.145-.521-1.621.62-.383 1.16-.108 1.198.612.039.72.457.409.93-.691 1.183-2.752 1.183-3.731 0-3-.916.566-1.443-1.783-1.229-5.485.047-.817-.445-1.823-1.093-2.235-.883-.561-.864-.753.072-.765.688-.008 1.25-.492 1.25-1.074 0-.582-.526-.734-1.17-.336-.787.486-.961.178-.531-.941.43-1.122.12-1.664-.953-1.664-1.312 0-1.369-.267-.326-1.524.696-.838.976-1.813.623-2.167-.354-.353-.643-.027-.643.724 0 1.004-.296 1.071-1.113.254-1.408-1.408-.274-3.373 1.544-2.675.752.288 1.707-.026 2.122-.698.484-.782.34-.966-.398-.509-.635.392-1.155.221-1.155-.381 0-.773-.569-.79-1.939-.056-1.326.709-2.141.712-2.575.01-.349-.565-.049-.904.666-.753.715.151 1.456-.744 1.646-1.99.201-1.319.797-1.985 1.428-1.595.661.408.793.2.339-.534-.569-.921-1.074-.929-2.154-.032-1.141.947-1.411.754-1.411-1.011 0-1.199.354-1.963.786-1.695.432.267.785-.349.785-1.368 0-1.019-.306-1.664-.681-1.432-.867.536-2.132-2.659-1.359-3.432.318-.318.983.078 1.479.88.695 1.125.864.962.738-.709-.09-1.193-.568-1.918-1.063-1.612-.506.313-.587-.427-.185-1.695.487-1.533.361-2.032-.393-1.566-.676.418-1.107-.14-1.107-1.434 0-1.165.451-1.839 1.003-1.498 1.717 1.061.446-3.701-1.336-5.004-1.973-1.443-2.209-2.643-.382-1.942 1.522.584 2.077-3.215.603-4.125-.632-.391-.592-1.082.112-1.931.759-.914.774-1.522.049-1.97-2.173-1.343-1.025-2.741 1.701-2.072 2.613.64 2.651.6.761-.803-1.094-.813-2.331-1.266-2.75-1.007-.419.258-.761.042-.761-.482 0-1.479 2.812-2.199 3.356-.86.268.657.522-.017.565-1.497.043-1.48-.371-2.969-.921-3.309-.55-.34-1-1.097-1-1.681 0-.641.697-.524 1.75.291 1.538 1.191 1.528 1.095-.08-.794-1.504-1.767-1.621-2.539-.66-4.335.643-1.202.939-3.067.658-4.144-.358-1.367.132-2.197 1.623-2.749l2.135-.79-2.176-1.164c-2.368-1.268-2.083-3.696.688-5.846 1.339-1.039 1.241-1.154-.688-.807-1.514.272-2.25-.087-2.25-1.097 0-.826.449-1.224.998-.885.549.339 2.012-.114 3.25-1.008 1.948-1.406 1.996-1.583.356-1.308-1.043.174-2.117-.317-2.387-1.092-.329-.949.017-1.215 1.058-.816 1.297.498 1.405.096.665-2.483-.908-3.166-.427-5.211 1.015-4.32.45.278 1.044-.36 1.321-1.419.292-1.117-.089-2.151-.909-2.466-1.14-.437-1.178-.916-.2-2.483.963-1.542.938-2.272-.119-3.546-1.152-1.388-1.088-1.511.475-.911 1.372.527 1.61.352.994-.727-.656-1.15-.554-1.182.536-.17 1.786 1.657 2.614 1.578 2.614-.25 0-.825-.461-1.5-1.025-1.5-.563 0-.151-.648.917-1.439 1.694-1.256 1.772-1.715.617-3.605-.728-1.191-.879-1.89-.335-1.554.543.336 1.178.27 1.41-.146.232-.416.26-.13.062.635-.293 1.136-.079 1.16 1.164.128 1.896-1.573 2.01-4.143.152-3.43-.754.289-1.628-.144-1.942-.963-.413-1.077-.013-1.381 1.446-1.1 1.773.341 1.963-.028 1.558-3.03-.254-1.881-.175-3.347.174-3.26.349.088 1.68-.195 2.958-.628 2.265-.77 2.278-.841.5-2.87-1.003-1.145-1.307-1.782-.677-1.415.63.366 2.152-.149 3.383-1.145 1.877-1.521 2.055-2.153 1.104-3.929-1.592-2.975-1.411-4.009.296-1.69 1.328 1.805 1.475 1.819 2.104.197.372-.96 1.113-1.475 1.646-1.146.533.33.395-.319-.305-1.441-.701-1.122-1.634-1.817-2.074-1.545-.44.272-.8.017-.8-.565s.623-1.059 1.383-1.059c1.507 0 2.843-4.742 1.56-5.536-.96-.593-20.461 20.929-32.653 36.036-53.788 66.653-90.679 145.493-107.24 229.187-6.632 33.52-9.343 62.397-9.368 99.813-.024 36.962 1.973 60.502 7.977 94C108.447 840.642 178.574 955.837 283 1037.665c84.84 66.481 185.928 105.538 296 114.366 18.65 1.496 63.35 1.496 82 0 91.057-7.303 175.285-34.989 250.5-82.341 98.283-61.874 174.304-153.519 215.835-260.19 43.363-111.381 46.967-236.205 10.119-350.5-48.768-151.269-166.681-275.847-316.688-334.587-49.784-19.494-100.29-31.105-156.266-35.924-18.407-1.585-67.763-1.811-85-.39m-195.687 67.584c.721.289 1.584.253 1.916-.079.332-.332-.258-.568-1.312-.525-1.165.048-1.402.285-.604.604m44.79.15c-.283.459.12.834.897.834s1.18-.375.897-.834c-.283-.458-.687-.833-.897-.833-.21 0-.614.375-.897.833m11.476 2.75c.048 1.165.285 1.402.604.605.289-.722.253-1.585-.079-1.917-.332-.332-.568.258-.525 1.312m-60.079.476c0 .582.45.781 1 .441s1-.816 1-1.059-.45-.441-1-.441-1 .477-1 1.059m13-.594c0 .255.873.932 1.939 1.503 1.385.741 2.144.707 2.655-.12.427-.691.278-.887-.37-.486-.597.369-1.368.213-1.714-.346-.628-1.016-2.51-1.429-2.51-.551m-10.493 2.524c-.35.566.051.734.941.393 1.732-.665 2.049-1.382.611-1.382-.518 0-1.216.445-1.552.989m-16.997 2.027c.346.559 1.047.758 1.559.441 1.387-.857 1.129-1.457-.628-1.457-.857 0-1.276.457-.931 1.016m80.99.984c-.34.55-.141 1 .441 1s1.059-.45 1.059-1-.198-1-.441-1-.719.45-1.059 1m-112.854 4.48c-.347.906-1.085 1.367-1.639 1.024-.554-.342-1.007-.145-1.007.437 0 1.295 1.672 1.399 2.442.153.308-.498 1.397-.687 2.421-.42 1.16.304 2.11-.162 2.522-1.235.568-1.48.437-1.536-.938-.395-1.285 1.067-1.754 1.078-2.384.058-.598-.968-.935-.878-1.417.378m7.957.353c-.283.459.12.834.897.834s1.18-.375.897-.834c-.283-.458-.687-.833-.897-.833-.21 0-.614.375-.897.833M330.5 173c-.34.55-.141 1 .441 1s1.059-.45 1.059-1-.198-1-.441-1-.719.45-1.059 1m166.969 6.05c-.918 1.486-.188 2.012 1.417 1.021.859-.532.962-1.047.29-1.462-.571-.353-1.339-.154-1.707.441M493 182.393c0 .216.698.661 1.552.989.89.341 1.291.173.941-.393-.587-.951-2.493-1.406-2.493-.596m29.4 12.076c0 1.321.32 2.204.711 1.962.756-.467.613-3.04-.215-3.869-.273-.272-.496.586-.496 1.907m25.262 22.269c-.744 1.204.89 3.583 2.152 3.134.674-.24.571-1.016-.288-2.182-.734-.995-1.573-1.424-1.864-.952M237.079 244.25c-.043.963-.529 1.75-1.079 1.75-.55 0-1 .546-1 1.214 0 .787.569.645 1.616-.401.889-.889 1.374-2.223 1.079-2.965-.368-.923-.562-.796-.616.402m-7.163 6.351c-1.595 1.922-2.081 4.399-.863 4.399.482 0 1.41-1.012 2.062-2.25.651-1.238 1.68-2.581 2.285-2.985.694-.463.5-.74-.528-.75-.895-.008-2.225.705-2.956 1.586M228 257.059c0 .582.45.781 1 .441s1-.816 1-1.059-.45-.441-1-.441-1 .477-1 1.059m348.64 4.438c-.343.894.149 1.319 1.417 1.224 2.273-.172 2.556-1.272.526-2.051-.78-.299-1.654.073-1.943.827M542 377c0 63.582.379 112 .878 112 .482 0 1.462-.705 2.177-1.566 2.301-2.772 21.129-17.809 31.945-25.511 31.244-22.25 63.261-38.603 99.632-50.886 9.827-3.318 18.656-6.035 19.618-6.035C697.9 405 698 400.999 698 335v-70H542v112M219.753 269.202c-.648 1.688 1.514 1.931 2.968.333.428-.47.255-.556-.386-.189-.64.367-1.345.124-1.566-.539-.263-.788-.615-.651-1.016.395m1.06 4.481c.721.289 1.584.253 1.916-.079.332-.332-.258-.568-1.312-.525-1.165.048-1.402.285-.604.604m-4.309 5.311c-.308.498.278 1.354 1.301 1.902 1.404.751 1.862.651 1.862-.407 0-1.671-2.364-2.788-3.163-1.495M208 310.969c0 .532.675.709 1.5.393.825-.317 1.5-.753 1.5-.969 0-.216-.675-.393-1.5-.393s-1.5.436-1.5.969m-6.375.829c-.271.439-.093 1.445.397 2.237.671 1.086.848.889.721-.798-.183-2.427-.364-2.66-1.118-1.439m-2.064 15.103c-.339.549.296 1.487 1.411 2.084 2.307 1.235 2.751-.14.617-1.911-.91-.755-1.63-.817-2.028-.173m-1.228 14.555c0 .801.383 1.22.85.931.467-.289.591-.944.274-1.456-.808-1.308-1.124-1.161-1.124.525m1.242 2.423c-.31.501.109 1.169.931 1.485.822.315 1.494.164 1.494-.336 0-1.356-1.777-2.198-2.425-1.149M202 357c0 .55.477 1 1.059 1s.781-.45.441-1-.816-1-1.059-1-.441.45-.441 1m-4.5 2c-.34.55-.141 1 .441 1s1.059-.45 1.059-1-.198-1-.441-1-.719.45-1.059 1m4.658 3c0 1.375.227 1.938.504 1.25.278-.687.278-1.812 0-2.5-.277-.687-.504-.125-.504 1.25M215 435c0 .55.477 1 1.059 1s.781-.45.441-1-.816-1-1.059-1-.441.45-.441 1m-1 6c-.901.582-1.025.975-.309.985.655.008 1.469-.435 1.809-.985.767-1.242.421-1.242-1.5 0m10.459 11.067c-.363.586-.445 1.281-.183 1.543s.743-.218 1.069-1.067c.676-1.762.1-2.072-.886-.476M236 480.378c0 .207.787.995 1.75 1.75 1.586 1.243 1.621 1.208.378-.378-1.307-1.666-2.128-2.195-2.128-1.372m505.5 17.991c-30.118 25.171-57.747 54.015-106.448 111.131-15.007 17.6-32.744 38.3-39.415 46-80.118 92.481-135.177 134.302-214.122 162.641-3.706 1.33-4.068 1.81-5.192 6.869-.664 2.991-1.063 5.583-.887 5.759.177.177 3.938 1.185 8.359 2.241l8.038 1.92 8.333-2.827C459.124 812.102 510.79 776.038 562.92 718.5c22.812-25.179 39.317-45.684 80.092-99.5 45.9-60.581 65.265-84.005 92.369-111.731 9.285-9.498 16.71-17.266 16.5-17.263-.209.003-4.881 3.767-10.381 8.363M275 514c-1.235.798-1.25.972-.083.985.779.008 1.12.311.758.673-.727.728 1.114 3.342 2.354 3.342.431 0 .548-.9.261-2-.288-1.1-.947-2-1.466-2-.518 0-.664-.45-.324-1 .767-1.242.421-1.242-1.5 0m-10 106v78h69c44.696 0 69-.347 69-.986 0-2.009 12.443-30.084 21.148-47.716 19.029-38.544 39.398-70.847 66.185-104.963l1.834-2.335H265v78m533.806-67.238c-8.997 20.579-17.92 44.671-31.879 86.066-7.728 22.92-15.373 45.42-16.989 50.002-1.616 4.581-2.938 8.519-2.938 8.75 0 .231 51.3.42 114 .42h114V542l-85.75.012-85.75.012-4.694 10.738M689.5 806.62c-30.222 36.106-72.73 57.812-126.958 64.832-6.578.851-13.89 1.548-16.25 1.548H542v102h156v-89c0-48.95-.112-88.986-.25-88.968-.138.017-3.85 4.332-8.25 9.588" fill="undefined" fill-rule="evenodd"/></svg>